:SAMPLES-PER-SECOND 30
:FULLY-SPECIFIED
:DEGREES
561
root  -3.09754 39.1603 31.802 -178.538 1.48293 177.86
RightUpLeg  -7.92943 -11.2653 -10.6046
RightLeg  21.6836 -6.13175 -2.87517
RightFoot  -8.85232 -0.445702 17.4862
RightToes  -1.74624e-010 0 -3.6325e-017
Spine  12.3394 -0.324849 -0.851008
Spine1  14.3154 -0.570355 0.675704
HEad  -15.4951 5.2378 -1.42889
LeftShoulder1  0.661 0.525292 -15.3692
LeftArm  17.2479 17.0463 -58.8834
LeftForeArm  113.335 -76.4277 -128.076
LeftHand  -0.908791 0.786495 22.825
RightShoulder  1.13632 1.3789 16.6756
RightArm  12.6466 -7.18348 61.5554
RightForeArm  95.3956 68.8115 146.15
RightHand  -0.368389 -1.46863 -10.7873
LeftUpLeg  -16.6754 3.43548 7.03014
LeftLeg  26.3072 10.3507 5.95156
LeftFoot  -1.96599 0.957293 -11.5107
LeftToes  -5.82109e-011 1.10366e-010 -8.03124e-011
562
root  -3.29579 39.5954 32.0524 -177.082 0.313232 177.264
RightUpLeg  -7.7475 -12.8086 -11.4325
RightLeg  17.6693 -6.61671 -2.22838
RightFoot  -5.20233 -1.0342 18.4748
RightToes  -1.74624e-010 0 -3.6325e-017
Spine  11.6141 -0.421689 -1.5102
Spine1  13.2688 -1.01594 1.46546
HEad  -15.8841 4.11528 -0.732804
LeftShoulder1  0.659165 0.31802 -13.7229
LeftArm  19.0256 15.899 -58.123
LeftForeArm  118.963 -75.0693 -134.386
LeftHand  -0.952804 0.558369 22.8003
RightShoulder  1.05354 1.30207 15.1871
RightArm  10.9592 -7.38341 61.2426
RightForeArm  97.1568 67.3524 148.705
RightHand  -0.344513 -1.728 -10.7615
LeftUpLeg  -15.8054 0.6554 6.57251
LeftLeg  19.8099 3.30541 1.57916
LeftFoot  -2.20529 1.11655 -13.7797
LeftToes  -5.82109e-011 1.10366e-010 -8.03124e-011
563
root  -3.54925 39.7872 32.2851 -176.249 0.0754242 176.821
RightUpLeg  -7.69019 -13.3927 -12.3729
RightLeg  15.1121 -7.04214 -1.49912
RightFoot  -3.28626 -1.41048 19.5463
RightToes  -1.74624e-010 0 -3.6325e-017
Spine  10.6587 -0.138129 -1.79828
Spine1  13.173 -0.807125 1.70983
HEad  -16.037 2.71457 -0.0642338
LeftShoulder1  0.680299 0.0265485 -12.469
LeftArm  19.4559 14.588 -57.241
LeftForeArm  121.223 -74.0449 -137.91
LeftHand  -1.02574 0.275993 23.2
RightShoulder  0.929436 1.02931 13.6172
RightArm  9.11193 -6.30891 60.6437
RightForeArm  96.5464 66.5923 149.787
RightHand  -0.293146 -2.22947 -10.4979
LeftUpLeg  -15.1947 -3.10599 6.75291
LeftLeg  18.2717 1.69645 0.940918
LeftFoot  -3.40112 0.935068 -13.0888
LeftToes  -5.82109e-011 1.10366e-010 -8.03124e-011
564
root  -3.82231 39.7955 32.5271 -176.344 0.862595 176.52
RightUpLeg  -7.34033 -12.9083 -13.0521
RightLeg  13.3451 -7.01459 -1.28573
RightFoot  -2.97396 -1.53378 20.4979
RightToes  -1.74624e-010 0 -3.6325e-017
Spine  10.1265 0.477288 -2.49654
Spine1  13.4528 -0.260966 1.9611
HEad  -15.6968 1.84262 0.0230491
LeftShoulder1  0.668827 -0.0249028 -11.7973
LeftArm  18.912 13.7634 -55.9753
LeftForeArm  122.516 -73.5408 -139.49
LeftHand  -1.06859 -0.0388339 22.7863
RightShoulder  0.783769 0.529521 12.4493
RightArm  7.60479 -4.04894 59.6119
RightForeArm  95.247 66.6295 149.638
RightHand  -0.197477 -3.23251 -9.99354
LeftUpLeg  -13.7841 -2.94645 6.85748
LeftLeg  20.7067 7.48201 3.49386
LeftFoot  -3.35066 0.631403 -8.82282
LeftToes  -5.82109e-011 1.10366e-010 -8.03124e-011
565
root  -4.15259 39.5996 32.7676 -177.228 1.44629 176.889
RightUpLeg  -6.81556 -11.8376 -13.0192
RightLeg  13.1958 -7.05167 -1.78448
RightFoot  -4.26117 -1.36178 21.3144
RightToes  -1.74624e-010 0 -3.6325e-017
Spine  10.0654 0.832718 -2.70647
Spine1  13.9931 -0.0499563 2.56441
HEad  -15.4794 1.68141 -0.275504
LeftShoulder1  0.62934 0.140246 -11.5319
LeftArm  17.562 13.5779 -54.5723
LeftForeArm  123.106 -73.6503 -139.301
LeftHand  -1.09178 -0.330672 22.1196
RightShoulder  0.695538 0.170798 11.8973
RightArm  6.38974 -1.25077 58.2688
RightForeArm  95.4252 67.1603 148.865
RightHand  -0.102771 -4.33371 -9.56445
LeftUpLeg  -11.5021 0.117611 7.65263
LeftLeg  24.5328 14.3314 7.34356
LeftFoot  -2.48862 0.555096 -6.90739
LeftToes  -5.82109e-011 1.10366e-010 -8.03124e-011
566
root  -4.57612 39.2638 32.9879 -178.29 0.712921 178.146
RightUpLeg  -6.42563 -11.1677 -12.3926
RightLeg  14.8409 -7.80389 -2.50844
RightFoot  -6.33158 -1.00582 21.7368
RightToes  -1.74624e-010 0 -3.6325e-017
Spine  9.93291 0.435264 -1.64163
Spine1  15.0245 -0.491345 2.97108
HEad  -15.9092 1.84224 -0.322876
LeftShoulder1  0.617028 0.221395 -11.6274
LeftArm  15.5746 13.7854 -53.5259
LeftForeArm  121.749 -74.3809 -137.028
LeftHand  -1.17399 -0.592788 22.7195
RightShoulder  0.689659 0.172496 11.7037
RightArm  5.05239 1.32443 56.9653
RightForeArm  95.431 67.9719 147.588
RightHand  -0.0651018 -4.83553 -9.94023
LeftUpLeg  -9.36313 2.49224 9.54052
LeftLeg  27.0359 15.8432 8.91237
LeftFoot  -4.05412 0.682797 -10.6123
LeftToes  -5.82109e-011 1.10366e-010 -8.03124e-011
567
root  -5.05173 38.9427 33.1843 -179.007 -1.47343 179.378
RightUpLeg  -6.4391 -12.0765 -12.1457
RightLeg  17.3876 -8.52977 -3.06817
RightFoot  -7.72542 -0.755132 21.9953
RightToes  -1.74624e-010 0 -3.6325e-017
Spine  9.65858 -0.413389 -0.833594
Spine1  15.8964 -1.53085 3.29061
HEad  -16.574 1.74346 0.0358287
LeftShoulder1  0.674705 0.0274369 -12.2938
LeftArm  13.4175 14.296 -53.0705
LeftForeArm  118.336 -75.5092 -132.741
LeftHand  -1.32449 -0.797712 24.728
RightShoulder  0.691352 0.198349 11.6049
RightArm  3.50623 3.21892 56.2053
RightForeArm  91.2323 69.4319 144.64
RightHand  -0.107095 -4.51176 -11.8758
LeftUpLeg  -8.30891 3.58206 10.9818
LeftLeg  27.0362 12.7518 7.32006
LeftFoot  -8.22563 0.472206 -15.3139
LeftToes  -5.82109e-011 1.10366e-010 -8.03124e-011
568
root  -5.48758 38.6825 33.3762 -179.323 -4.89368 179.334
RightUpLeg  -7.23298 -14.2188 -13.2448
RightLeg  21.1772 -8.93873 -4.03246
RightFoot  -7.92008 -0.744973 22.8051
RightToes  -1.74624e-010 0 -3.6325e-017
Spine  9.89652 -0.964144 -2.39565
Spine1  15.5854 -2.92725 4.80739
HEad  -16.7934 0.638941 0.661586
LeftShoulder1  0.775055 -0.304194 -13.3468
LeftArm  11.8136 14.9433 -53.1435
LeftForeArm  114.212 -76.5681 -127.696
LeftHand  -1.4711 -0.918703 26.8746
RightShoulder  0.628313 -0.150818 11.6926
RightArm  2.11825 4.04343 56.2966
RightForeArm  82.5418 71.8067 138.507
RightHand  -0.233385 -3.68775 -15.1083
LeftUpLeg  -8.62037 4.10331 10.6239
LeftLeg  26.1038 8.82524 5.0172
LeftFoot  -11.9147 -0.000865953 -16.1282
LeftToes  -5.82109e-011 1.10366e-010 -8.03124e-011
569
root  -5.79082 38.484 33.5655 -179.399 -9.22401 177.748
RightUpLeg  -8.59017 -15.2201 -15.7768
RightLeg  26.7119 -11.0959 -6.25397
RightFoot  -6.95543 -0.965564 23.6323
RightToes  -1.74624e-010 0 -3.6325e-017
Spine  10.8118 -0.802374 -5.93175
Spine1  14.4241 -4.00235 7.30811
HEad  -16.7324 -2.27612 1.78879
LeftShoulder1  0.84514 -0.525297 -14.0365
LeftArm  11.2765 15.1562 -53.531
LeftForeArm  111.193 -77.1965 -124
LeftHand  -1.56518 -1.01755 28.0994
RightShoulder  0.534403 -0.721376 12.2466
RightArm  1.30316 3.33959 56.9488
RightForeArm  72.3895 74.3803 129.029
RightHand  -0.423265 -2.71932 -18.1485
LeftUpLeg  -9.60179 3.69629 8.56414
LeftLeg  25.6949 5.79819 3.37774
LeftFoot  -13.4125 -0.176646 -13.9972
LeftToes  -5.82109e-011 1.10366e-010 -8.03124e-011
570
root  -5.96662 38.4166 33.7112 -179.3 -13.6409 175.879
RightUpLeg  -9.82215 -15.405 -18.24
RightLeg  32.4656 -14.1799 -9.76303
RightFoot  -4.58548 -1.39382 22.8832
RightToes  -1.74624e-010 0 -3.6325e-017
Spine  11.4768 -0.130648 -8.10368
Spine1  13.8305 -3.91743 8.47041
HEad  -17.0439 -7.12577 3.57736
LeftShoulder1  0.865464 -0.62937 -13.9947
LeftArm  11.5215 14.7044 -53.9348
LeftForeArm  110.494 -77.4446 -122.519
LeftHand  -1.64194 -1.27559 28.3292
RightShoulder  0.507176 -1.00063 13.4154
RightArm  1.6227 1.30476 57.6116
RightForeArm  60.7886 76.4743 116.008
RightHand  -0.657376 -1.61925 -20.0889
LeftUpLeg  -10.2797 2.09578 6.32373
LeftLeg  25.316 3.41175 2.10863
LeftFoot  -13.2606 -0.13503 -12.7485
LeftToes  -5.82109e-011 1.10366e-010 -8.03124e-011
